<?xml version="1.0" encoding="utf-8"?>
<!-- Generator: Adobe Illustrator 26.3.1, SVG Export Plug-In . SVG Version: 6.00 Build 0)  -->
<svg version="1.1" id="Layer_1" xmlns="http://www.w3.org/2000/svg" xmlns:xlink="http://www.w3.org/1999/xlink" x="0px" y="0px"
	 viewBox="0 0 157.9 154.5" style="enable-background:new 0 0 157.9 154.5;" xml:space="preserve">
<style type="text/css">
	.st0{fill:#020202;}
	.st1{fill:#FFFFFF;stroke:#000000;stroke-width:5;stroke-miterlimit:10;}
</style>
<g>
	<g>
		<path class="st0" d="M18.2,117.3C19.6,94.4,28.6,74.6,43,57.1c13.6-16.6,30.4-28.9,50.7-36.2c9.4-3.4,19.2-5.2,29.2-5.3
			c3.6,0,6.5,2,7.3,5.2c0.8,3.2-0.5,6.5-3.4,8c-0.9,0.5-2.1,0.9-3.1,0.9C107.3,29.7,92.5,35,79,43.8C61.2,55.3,47.6,70.6,39,90.1
			c-4.3,9.8-6.7,20-6.8,30.7c0,4-3.1,7-6.9,7.1c-3.8,0.1-6.9-3-7.1-6.9C18.1,119.7,18.2,118.5,18.2,117.3z"/>
	</g>
	<circle class="st1" cx="133.9" cy="22.8" r="12"/>
	<circle class="st1" cx="23.9" cy="131.8" r="12"/>
</g>
</svg>
