<?xml version="1.0" encoding="UTF-8"?>
<svg id="Layer_1" data-name="Layer 1" xmlns="http://www.w3.org/2000/svg" width="30" height="30" viewBox="0 0 30 30">
  <defs>
    <style>
      .cls-1 {
        fill: #fff;
        stroke: #fff;
        stroke-miterlimit: 10;
      }
    </style>
  </defs>
  <circle cx="15" cy="15" r="15" fill="#000"/>
  <path class="cls-1" d="M8.01,21.28c.27-.76,1.6-.75,3.41-.1,2.16,.77,4.88,1.63,5.62,.98,.29-.25,.39-.42,.32-.72-.17-.82-2.09-2.03-5.33-4.11-3.33-2.14-2.84-3.7-2.59-4.14,.61-1.03,2.41-1.4,4.18-.7,1.46,.58,2.78,1.36,3.84,2.05,1.45,.94,2.81,1.99,4.68,2.45,1.08,.27,1.5,.14,1.81-.35,.45-.73-.22-1.8-2.03-3.47-2.29-2.12-5.96-4.57-7.7-5.69-.5-.32-.62-.97-.27-1.44,.01-.02,.02-.03,.03-.04h0c.38-.46,1.07-.54,1.55-.2l.03,.02c1.61,1.29,5.1,4.1,7.43,6.26,1.91,1.77,2.92,3.95,2,5.21-.68,.93-1.88,1.13-3.31,.69-2.07-.66-3.4-1.6-4.81-2.59-1.08-.76-2.21-1.54-3.58-2.08-1.56-.62-2.76-.34-3.09,.23s.05,1.75,2.26,3.17c3.62,2.32,5.37,3.49,5.54,4.63,.08,.45-.08,.92-.44,1.24-.93,.89-3.23,.31-6.48-.87-1.63-.59-2.47-.53-2.65-.27-.15,.22,.21,1.05,2.56,2.5,.06,.03,.07,.1,.04,.16h0c-.04,.05-.11,.07-.17,.03h0c-1.83-1.12-3.15-2.09-2.87-2.85Z"/>
</svg>