<?xml version="1.0" encoding="utf-8"?>
<!-- Generator: Adobe Illustrator 26.3.1, SVG Export Plug-In . SVG Version: 6.00 Build 0)  -->
<svg version="1.1" id="Layer_1" xmlns="http://www.w3.org/2000/svg" xmlns:xlink="http://www.w3.org/1999/xlink" x="0px" y="0px"
	 viewBox="0 0 157.9 154.5" style="enable-background:new 0 0 157.9 154.5;" xml:space="preserve">
<style type="text/css">
	.st0{display:none;}
	.st1{display:inline;}
	.st2{clip-path:url(#SVGID_00000139257790107853131310000004517957866836698552_);}
	.st3{fill:#010101;}
	.st4{fill:#020202;}
	.st5{fill:#FFFFFF;stroke:#000000;stroke-width:4;stroke-miterlimit:10;}
</style>
<g class="st0">
	<rect x="96.2" y="32.4" class="st1" width="45.2" height="12"/>
	<g class="st1">
		<defs>
			<rect id="SVGID_1_" x="49.9" y="31.6" width="46.1" height="96.9"/>
		</defs>
		<clipPath id="SVGID_00000120556212544391226700000004424473253856951175_">
			<use xlink:href="#SVGID_1_"  style="overflow:visible;"/>
		</clipPath>
		<g style="clip-path:url(#SVGID_00000120556212544391226700000004424473253856951175_);">
			<path class="st3" d="M96.3,32.4c0-3.9,0-7.7,0-11.7c12,0,23.9,0,35.8,0c0,11.9,0,23.7,0,35.7c-11.9,0-23.8,0-35.7,0
				c0-3.9,0-7.8,0-11.9c-3.2,0-6.1,0.7-8.7,2.3c-6.1,3.6-9.2,9-9.2,16c0,11.7,0,23.4,0,35.2c-0.1,14.7-9.7,26.5-23.9,29.6
				c-1.9,0.4-3.9,0.5-5.9,0.8c0,3.8,0,7.7,0,11.7c-12,0-23.8,0-35.8,0c0-11.8,0-23.7,0-35.7c11.9,0,23.7,0,35.7,0
				c0,3.9,0,7.8,0,11.9c5.9-0.2,10.6-2.5,14.2-7c2.7-3.4,3.8-7.3,3.8-11.6c0-11.7,0-23.4,0-35c0.1-14.6,9.6-26.4,23.8-29.5
				C92.2,32.8,94.2,32.6,96.3,32.4z M120.1,44.5c0-4,0-7.9,0-11.9c-4,0-7.9,0-11.8,0c0,4,0,7.9,0,11.9
				C112.3,44.5,116.2,44.5,120.1,44.5z M36.5,128.1c0-4,0-7.9,0-11.8c-4,0-7.9,0-11.8,0c0,4,0,7.9,0,11.8
				C28.6,128.1,32.5,128.1,36.5,128.1z"/>
		</g>
	</g>
	<rect x="5.4" y="116.2" class="st1" width="45.2" height="12"/>
</g>
<g>
	<path class="st4" d="M21.7,118.7c0-3.6,0-7,0-10.6c0.5,0,0.9,0,1.3,0c12.2,0,24.3,0,36.5,0c7.4,0,14.1-6,14.9-13.4
		c0.1-1.2,0.2-2.4,0.2-3.6c0-9.7,0-19.5,0-29.2c0-12.8,7.9-22.8,20.4-25.7c2.2-0.5,4.4-0.8,6.6-0.8c12.3-0.1,24.5,0,36.8-0.1
		c1.1,0,1.4,0.3,1.3,1.3c-0.1,3,0,6,0,9.2c-0.6,0-1,0-1.5,0c-12.1,0-24.3,0-36.4,0c-1.6,0-3.3,0.2-4.8,0.5
		c-7.2,1.7-11.9,7.8-12,15.6c-0.1,9.7-0.1,19.5,0,29.2c0,5.8-1.1,11.2-4.5,16c-5.2,7.5-12.4,11.3-21.5,11.4c-12.1,0.1-24.1,0-36.2,0
		C22.6,118.7,22.1,118.7,21.7,118.7z"/>
	<circle class="st5" cx="140.2" cy="40.6" r="12"/>
	<circle class="st5" cx="17.7" cy="113.9" r="12"/>
</g>
</svg>
